<svg xmlns="http://www.w3.org/2000/svg" width="400" height="400" id="store"><path fill="#485EFF" d="M347.5 378.17h-93.91c3.05-2.84 5.94-5.8 8.68-8.85 16.561 3.68 34.37 6.319 53.521 7.71 10.179.75 20.749 1.14 31.709 1.14z" opacity=".3"></path><path fill="#92AAFF" d="M142.41 158.22c-.12.99-.28 1.97-.5 2.93-.21-.96-.38-1.94-.5-2.93.14-1.2.21-2.44.21-3.68l-.06-21.67h.56l.08 25.03.17-.01c.01.11.03.22.04.32v.01z"></path><path fill="#5C77FF" d="M198.75 154.54c0 1.15-.07 2.29-.19 3.4h-.08l-.07-25.07h.27l.07 21.67zM85.04 133.52v13.1l-.04-13.1z"></path><path fill="#485EFF" d="M334.5 18.5s-138.26 49-268.63 49H334.5v-49z" opacity=".3"></path><path fill="#5C77FF" d="M246.094 288.281h77.344v28.125h-77.344z"></path><path fill="#354B87" d="M386.719 378.168h-24.216V181.71c0-4.142-3.357-7.5-7.5-7.5s-7.5 3.358-7.5 7.5v196.458h-16.716V224.621c0-4.143-3.357-7.5-7.5-7.5h-77.193a7.499 7.499 0 0 0-7.5 7.5v153.547H53.279V182.034a7.5 7.5 0 0 0-15 0v196.134H14.063c-4.723 0-8.551 3.828-8.551 8.551s3.828 8.551 8.551 8.551h372.656c4.723 0 8.551-3.828 8.551-8.551s-3.828-8.551-8.551-8.551zM253.594 232.121h62.193v146.047h-62.193V232.121z"></path><path fill="#5C77FF" d="M142.49 109.76v.19h-1l.07 22.92.06 21.67c0 1.24-.07 2.48-.21 3.68.12.99.29 1.97.5 2.93-1.29 5.86-4.29 11.06-8.45 15-5.03 4.79-11.74 7.76-19.13 7.89-.13.01-.27.01-.4.01-.34 0-.67 0-1-.02-7.22-.22-13.78-3.17-18.7-7.88a29.543 29.543 0 0 1-8.98-18.26l-.17.01-.04-11.28v-36.67l57.45-.19z"></path><path fill="#92AAFF" d="M142.41 158.21v.01c-.12.99-.28 1.97-.5 2.93-.21-.96-.38-1.94-.5-2.93.14-1.2.21-2.44.21-3.68l-.06-21.67-.07-22.92h.56l.07 22.92.08 25.03.17-.01c.01.11.03.22.04.32z"></path><path fill="#92AAFF" d="M198.61 109.99h-.27l.07 22.88.07 25.07h.08a29.414 29.414 0 0 1-8.98 18.21c-5.01 4.79-11.71 7.75-19.08 7.89-.02.01-.03.01-.04 0h-.01c-.13.01-.27.01-.4.01-7.61.03-14.54-2.98-19.7-7.9-4.14-3.94-7.14-9.14-8.44-15 .22-.96.38-1.94.5-2.93v-.01c-.01-.1-.03-.21-.04-.32l-.17.01-.08-25.03-.07-22.92h.44l56.12-.18v.22z"></path><path fill="#5C77FF" d="M142.41 158.21v.01c-.12.99-.28 1.97-.5 2.93-.21-.96-.38-1.94-.5-2.93.14-1.2.21-2.44.21-3.68l-.06-21.67-.07-22.92h.56l.07 22.92.08 25.03.17-.01c.01.11.03.22.04.32zm113.621-3.62c.02 8.5-3.48 16.17-9.11 21.56-5.03 4.81-11.75 7.81-19.17 7.94-.23-1.03-.4-2.07-.52-3.14l-.091.01c-.109 1.06-.279 2.1-.51 3.12-7.36-.15-14.04-3.13-19.04-7.93-4.88-4.66-8.16-11.05-8.94-18.21h-.09c.12-1.11.19-2.25.19-3.4l-.07-21.67-.07-22.88 57.28-.19.07 23.1.071 21.69z"></path><path fill="#92AAFF" d="M227.75 184.09c-.13.01-.27.01-.41.01-.24 0-.47 0-.71-.02.23-1.02.4-2.06.51-3.12l.091-.01c.119 1.07.289 2.11.519 3.14zm85.97-29.55c.03 8.54-3.5 16.23-9.16 21.61-5.02 4.8-11.729 7.76-19.109 7.89-.141.01-.28.01-.42.01-.36 0-.721 0-1.08-.02-7.181-.24-13.71-3.18-18.61-7.88-4.91-4.66-8.22-11.06-8.99-18.26l-.17.01-.08-25-.069-22.95 57.56-.18.07 23.1.058 21.67z"></path><path fill="#5C77FF" d="M371.42 154.59c.03 12.14-7.15 22.6-17.42 27.12a28.182 28.182 0 0 1-10.87 2.38c-.13.01-.27.01-.399.01h-.15c-.33 0-.65-.01-.97-.03-7.2-.25-13.721-3.21-18.63-7.92-4.881-4.66-8.171-11.05-8.95-18.21h-.17l-.08-25.07-.061-21.72v-1.17l28.86-.09 28.7-.09.069 23.1.071 21.69z"></path><path fill="#92AAFF" d="M85.04 146.62v8.01c0 8.5-3.52 16.16-9.16 21.52-5.02 4.81-11.75 7.77-19.14 7.89-.16.01-.32.01-.48.01-3.7 0-7.23-.71-10.48-2.02-9.79-3.91-16.97-13.15-18.12-24.23l-.18.01v-47.95l57.45 1.29.07 22.37.04 13.1z"></path><path fill="#354B87" d="M28.405 117.151h343.502a7.5 7.5 0 0 0 4.694-13.35l-35.543-32.235c3.079-3.82 4.958-9.016 4.958-14.834V27.959c0-11.999-7.938-21.397-18.072-21.397H72.349c-10.134 0-18.072 9.398-18.072 21.397l.001 28.771c0 5.672 1.79 10.747 4.731 14.539l-35.685 32.863a7.5 7.5 0 0 0 5.081 13.019zm40.872-89.192c0-4.155 2.181-6.397 3.072-6.397h255.595c.892 0 3.072 2.242 3.072 6.397v28.772c0 4.155-2.181 6.396-3.072 6.396H72.349c-.892 0-3.072-2.242-3.072-6.396V27.959zm4.428 50.169h252.26l26.488 24.023H47.62l26.085-24.023zM73.37 217.32a7.5 7.5 0 0 0-7.5 7.5v105.164a7.5 7.5 0 0 0 7.5 7.5h138.913c4.143 0 7.5-3.357 7.5-7.5V224.82c0-4.143-3.357-7.5-7.5-7.5H73.37zm131.413 105.164H80.87V232.32h123.913v90.164z"></path><path fill="#485EFF" d="M105.469 309.844a7.5 7.5 0 0 1-5.303-12.803l56.25-56.25a7.501 7.501 0 0 1 10.606 10.607l-56.25 56.25a7.481 7.481 0 0 1-5.303 2.196zm33.669-1.49a7.5 7.5 0 0 1-5.303-12.803l24.609-24.609a7.501 7.501 0 0 1 10.606 10.607l-24.609 24.609a7.475 7.475 0 0 1-5.303 2.196z" opacity=".3"></path><path fill="#485EFF" d="M204.783 232.32s.457 90.164-123.913 90.164h124.37l-.457-90.164zm111.007-.2v144.91c-19.15-1.391-36.96-4.03-53.521-7.71 48.951-54.11 53.521-137.2 53.521-137.2zm10.175-153.992s-2.527 24.023-278.345 24.023h304.833l-26.488-24.023z" opacity=".3"></path></svg>